<svg width="333" height="331" viewBox="0 0 333 331" fill="none" xmlns="http://www.w3.org/2000/svg">
<path d="M163.693 327.625C142.248 327.625 121.012 323.412 101.198 315.227C81.3849 307.041 63.382 295.044 48.2175 279.919C33.053 264.794 21.0239 246.838 12.8169 227.077C4.60988 207.315 0.385826 186.135 0.385827 164.745C0.385828 143.356 4.60992 122.175 12.8169 102.414C21.0239 82.6523 33.053 64.6965 48.2175 49.5717C63.382 34.4469 81.3849 22.4492 101.198 14.2637C121.012 6.07824 142.248 1.86522 163.693 1.86523L163.693 164.745L163.693 327.625Z" fill="#FFAA05"/>
<path d="M297.442 258.015C292.528 264.958 287.067 271.499 281.109 277.575L166.535 165.861L297.442 258.015Z" fill="#7600FF"/>
<path d="M304.728 247.57C302.9 250.596 300.971 253.56 298.946 256.457L167.499 165.063L304.728 247.57Z" fill="#DB72DD"/>
<path d="M280.046 280.795C249.981 310.78 209.204 327.625 166.686 327.625L166.686 167.738L280.046 280.795Z" fill="#11AB44"/>
<path d="M167.541 1.86523C195.995 1.86523 223.936 9.41794 248.496 23.7479C273.055 38.0778 293.348 58.6686 307.291 83.4059C321.233 108.143 328.323 136.136 327.833 164.51C327.342 192.883 319.288 220.615 304.499 244.859L167.541 161.753L167.541 1.86523Z" fill="#FF5005"/>
</svg>
