<svg width="28" height="28" viewBox="0 0 28 28" fill="none" xmlns="http://www.w3.org/2000/svg">
<path d="M27.4201 8.45768C27.405 7.32162 27.1923 6.19684 26.7916 5.13368C26.4441 4.23691 25.9134 3.42248 25.2334 2.74243C24.5533 2.06237 23.7389 1.53166 22.8421 1.18418C21.7926 0.790215 20.6839 0.577192 19.5631 0.55418C18.1201 0.48968 17.6626 0.47168 13.9996 0.47168C10.3366 0.47168 9.86712 0.47168 8.43462 0.55418C7.31436 0.577361 6.20614 0.790382 5.15712 1.18418C4.2602 1.53141 3.44565 2.06205 2.76557 2.74213C2.08548 3.42221 1.55485 4.23677 1.20762 5.13368C0.812864 6.18238 0.600302 7.29085 0.579117 8.41118C0.514617 9.85568 0.495117 10.3132 0.495117 13.9762C0.495117 17.6392 0.495117 18.1072 0.579117 19.5412C0.601617 20.6632 0.813117 21.7702 1.20762 22.8217C1.55543 23.7183 2.08646 24.5325 2.76677 25.2123C3.44708 25.8921 4.26171 26.4225 5.15862 26.7697C6.20477 27.1795 7.31318 27.4078 8.43612 27.4447C9.88062 27.5092 10.3381 27.5287 14.0011 27.5287C17.6641 27.5287 18.1336 27.5287 19.5661 27.4447C20.6868 27.4226 21.7957 27.2101 22.8451 26.8162C23.7417 26.4683 24.5559 25.9374 25.2359 25.2574C25.9159 24.5774 26.4467 23.7632 26.7946 22.8667C27.1891 21.8167 27.4006 20.7097 27.4231 19.5862C27.4876 18.1432 27.5071 17.6857 27.5071 14.0212C27.5041 10.3582 27.5041 9.89318 27.4201 8.45768V8.45768ZM13.9906 20.9032C10.1596 20.9032 7.05612 17.7997 7.05612 13.9687C7.05612 10.1377 10.1596 7.03418 13.9906 7.03418C15.8298 7.03418 17.5936 7.76478 18.894 9.06525C20.1945 10.3657 20.9251 12.1295 20.9251 13.9687C20.9251 15.8078 20.1945 17.5716 18.894 18.8721C17.5936 20.1726 15.8298 20.9032 13.9906 20.9032V20.9032ZM21.2011 8.39468C20.9887 8.39488 20.7784 8.35319 20.5821 8.272C20.3858 8.1908 20.2075 8.0717 20.0573 7.92151C19.9071 7.77132 19.788 7.59299 19.7068 7.39671C19.6256 7.20044 19.5839 6.99008 19.5841 6.77768C19.5841 6.56543 19.6259 6.35526 19.7071 6.15917C19.7884 5.96308 19.9074 5.7849 20.0575 5.63482C20.2076 5.48474 20.3858 5.36568 20.5819 5.28446C20.7779 5.20324 20.9881 5.16143 21.2004 5.16143C21.4126 5.16143 21.6228 5.20324 21.8189 5.28446C22.015 5.36568 22.1931 5.48474 22.3432 5.63482C22.4933 5.7849 22.6124 5.96308 22.6936 6.15917C22.7748 6.35526 22.8166 6.56543 22.8166 6.77768C22.8166 7.67168 22.0936 8.39468 21.2011 8.39468Z" fill="#FFAA05"/>
<path d="M13.9908 18.4729C16.4786 18.4729 18.4953 16.4561 18.4953 13.9684C18.4953 11.4806 16.4786 9.46387 13.9908 9.46387C11.5031 9.46387 9.48633 11.4806 9.48633 13.9684C9.48633 16.4561 11.5031 18.4729 13.9908 18.4729Z" fill="#FFAA05"/>
</svg>
