<svg width="1920" height="344" viewBox="0 0 1920 344" fill="none" xmlns="http://www.w3.org/2000/svg">
<path d="M120.05 200.464C125.784 148.102 104.487 140.33 92.6096 144.42L-2 139.92V0H872V144.42C838.689 148.102 836.871 141.066 824.093 145.648C808.12 151.375 799.929 166.92 807.71 191.056C815.492 215.191 812.216 228.282 799.929 227.464C787.642 226.646 781.908 217.237 789.28 194.328C796.652 171.42 789.69 160.374 781.908 145.648C774.126 130.921 764.706 164.465 751.19 170.601C737.675 176.738 729.074 162.011 718.425 139.92C707.777 117.83 696.718 124.375 684.022 139.92C671.325 155.465 668.049 213.555 671.325 234.418C674.602 255.281 679.926 303.144 655.352 301.098C630.778 299.053 635.283 269.19 638.97 254.872C642.656 240.554 642.246 229.509 638.97 195.964C635.693 162.42 627.911 146.466 611.529 128.875C595.146 111.285 569.753 117.83 563.2 128.875C556.647 139.92 562.381 164.465 563.2 174.692C564.019 184.919 564.838 206.601 548.865 206.601C532.892 206.601 539.855 172.647 541.493 152.602C543.131 132.557 529.206 131.739 523.063 138.284C516.919 144.829 507.909 146.466 494.803 146.466C481.697 146.466 470.229 153.42 459.99 161.193C449.75 168.965 452.617 186.965 455.075 210.282C457.532 233.6 453.846 244.645 442.788 248.327C431.73 252.009 412.48 249.145 421.081 206.601C429.682 164.056 422.31 158.329 412.48 146.466C402.65 134.602 390.363 137.057 379.715 146.466C369.066 155.875 363.332 168.147 360.465 180.419C357.598 192.692 362.103 221.328 352.683 219.282C343.263 217.237 349.817 205.782 348.178 186.965C346.54 168.147 329.338 173.056 325.243 186.965C321.147 200.873 327.7 239.736 327.7 253.236C327.7 266.736 315.823 273.281 310.498 258.554C305.174 243.827 315.413 227.055 312.956 194.737C310.498 162.42 290.43 136.239 274.457 139.511C258.483 142.784 243.33 193.101 241.691 216.828C240.053 240.554 246.606 298.235 249.063 312.962C251.521 327.689 245.377 340.37 235.138 342.415C224.899 344.461 217.937 342.825 215.07 326.052C212.203 309.28 223.67 276.963 221.623 235.236C219.575 193.51 212.612 190.646 205.65 183.692C198.687 176.738 188.038 176.329 172.884 159.556C157.73 142.784 143.805 151.375 140.119 159.556C136.433 167.738 140.529 221.737 143.805 240.554C147.082 259.372 140.119 274.917 125.375 272.463C110.63 270.008 114.317 252.827 120.05 200.464Z" fill="white"/>
<path d="M901.05 200.464C906.784 148.102 885.487 140.33 873.61 144.42L779 139.92V0H1653V144.42C1619.69 148.102 1617.87 141.066 1605.09 145.648C1589.12 151.375 1580.93 166.92 1588.71 191.056C1596.49 215.191 1593.22 228.282 1580.93 227.464C1568.64 226.646 1562.91 217.237 1570.28 194.328C1577.65 171.42 1570.69 160.374 1562.91 145.648C1555.13 130.921 1545.71 164.465 1532.19 170.601C1518.67 176.738 1510.07 162.011 1499.43 139.92C1488.78 117.83 1477.72 124.375 1465.02 139.92C1452.33 155.465 1449.05 213.555 1452.33 234.418C1455.6 255.281 1460.93 303.144 1436.35 301.098C1411.78 299.053 1416.28 269.19 1419.97 254.872C1423.66 240.554 1423.25 229.509 1419.97 195.964C1416.69 162.42 1408.91 146.466 1392.53 128.875C1376.15 111.285 1350.75 117.83 1344.2 128.875C1337.65 139.92 1343.38 164.465 1344.2 174.692C1345.02 184.919 1345.84 206.601 1329.87 206.601C1313.89 206.601 1320.85 172.647 1322.49 152.602C1324.13 132.557 1310.21 131.739 1304.06 138.284C1297.92 144.829 1288.91 146.466 1275.8 146.466C1262.7 146.466 1251.23 153.42 1240.99 161.193C1230.75 168.965 1233.62 186.965 1236.07 210.282C1238.53 233.6 1234.85 244.645 1223.79 248.327C1212.73 252.009 1193.48 249.145 1202.08 206.601C1210.68 164.056 1203.31 158.329 1193.48 146.466C1183.65 134.602 1171.36 137.057 1160.71 146.466C1150.07 155.875 1144.33 168.147 1141.47 180.419C1138.6 192.692 1143.1 221.328 1133.68 219.282C1124.26 217.237 1130.82 205.782 1129.18 186.965C1127.54 168.147 1110.34 173.056 1106.24 186.965C1102.15 200.873 1108.7 239.736 1108.7 253.236C1108.7 266.736 1096.82 273.281 1091.5 258.554C1086.17 243.827 1096.41 227.055 1093.96 194.737C1091.5 162.42 1071.43 136.239 1055.46 139.511C1039.48 142.784 1024.33 193.101 1022.69 216.828C1021.05 240.554 1027.61 298.235 1030.06 312.962C1032.52 327.689 1026.38 340.37 1016.14 342.415C1005.9 344.461 998.937 342.825 996.07 326.052C993.203 309.28 1004.67 276.963 1002.62 235.236C1000.57 193.51 993.612 190.646 986.65 183.692C979.687 176.738 969.038 176.329 953.884 159.556C938.73 142.784 924.805 151.375 921.119 159.556C917.433 167.738 921.529 221.737 924.805 240.554C928.082 259.372 921.119 274.917 906.375 272.463C891.63 270.008 895.317 252.827 901.05 200.464Z" fill="white"/>
<path d="M1628.05 200.464C1633.78 148.102 1612.49 140.33 1600.61 144.42L1506 139.92V0H2380V144.42C2346.69 148.102 2344.87 141.066 2332.09 145.648C2316.12 151.375 2307.93 166.92 2315.71 191.056C2323.49 215.191 2320.22 228.282 2307.93 227.464C2295.64 226.646 2289.91 217.237 2297.28 194.328C2304.65 171.42 2297.69 160.374 2289.91 145.648C2282.13 130.921 2272.71 164.465 2259.19 170.601C2245.67 176.738 2237.07 162.011 2226.43 139.92C2215.78 117.83 2204.72 124.375 2192.02 139.92C2179.33 155.465 2176.05 213.555 2179.33 234.418C2182.6 255.281 2187.93 303.144 2163.35 301.098C2138.78 299.053 2143.28 269.19 2146.97 254.872C2150.66 240.554 2150.25 229.509 2146.97 195.964C2143.69 162.42 2135.91 146.466 2119.53 128.875C2103.15 111.285 2077.75 117.83 2071.2 128.875C2064.65 139.92 2070.38 164.465 2071.2 174.692C2072.02 184.919 2072.84 206.601 2056.87 206.601C2040.89 206.601 2047.85 172.647 2049.49 152.602C2051.13 132.557 2037.21 131.739 2031.06 138.284C2024.92 144.829 2015.91 146.466 2002.8 146.466C1989.7 146.466 1978.23 153.42 1967.99 161.193C1957.75 168.965 1960.62 186.965 1963.07 210.282C1965.53 233.6 1961.85 244.645 1950.79 248.327C1939.73 252.009 1920.48 249.145 1929.08 206.601C1937.68 164.056 1930.31 158.329 1920.48 146.466C1910.65 134.602 1898.36 137.057 1887.71 146.466C1877.07 155.875 1871.33 168.147 1868.47 180.419C1865.6 192.692 1870.1 221.328 1860.68 219.282C1851.26 217.237 1857.82 205.782 1856.18 186.965C1854.54 168.147 1837.34 173.056 1833.24 186.965C1829.15 200.873 1835.7 239.736 1835.7 253.236C1835.7 266.736 1823.82 273.281 1818.5 258.554C1813.17 243.827 1823.41 227.055 1820.96 194.737C1818.5 162.42 1798.43 136.239 1782.46 139.511C1766.48 142.784 1751.33 193.101 1749.69 216.828C1748.05 240.554 1754.61 298.235 1757.06 312.962C1759.52 327.689 1753.38 340.37 1743.14 342.415C1732.9 344.461 1725.94 342.825 1723.07 326.052C1720.2 309.28 1731.67 276.963 1729.62 235.236C1727.57 193.51 1720.61 190.646 1713.65 183.692C1706.69 176.738 1696.04 176.329 1680.88 159.556C1665.73 142.784 1651.81 151.375 1648.12 159.556C1644.43 167.738 1648.53 221.737 1651.81 240.554C1655.08 259.372 1648.12 274.917 1633.37 272.463C1618.63 270.008 1622.32 252.827 1628.05 200.464Z" fill="white"/>
</svg>
