<svg width="19" height="19" viewBox="0 0 19 19" fill="none" xmlns="http://www.w3.org/2000/svg">
<path d="M18.4636 14.8949L14.2441 11.0584C14.0446 10.8771 13.7825 10.7805 13.5131 10.7888C13.2437 10.7971 12.9881 10.9098 12.8002 11.1031L10.3162 13.6576C9.71833 13.5434 8.5163 13.1687 7.27899 11.9345C6.04167 10.6962 5.66695 9.49104 5.55588 8.8973L8.10836 6.4123C8.30186 6.22456 8.41472 5.96889 8.42305 5.69941C8.43138 5.42992 8.33453 5.16777 8.153 4.96843L4.31752 0.749968C4.13592 0.550002 3.88351 0.428709 3.61391 0.411847C3.34431 0.394985 3.07875 0.483883 2.87364 0.659661L0.621145 2.5914C0.441684 2.77151 0.334569 3.01122 0.32012 3.26506C0.30455 3.52456 0.00767723 9.67165 4.77425 14.4403C8.93255 18.5975 14.1413 18.9016 15.5759 18.9016C15.7855 18.9016 15.9142 18.8954 15.9485 18.8933C16.2023 18.8791 16.4419 18.7715 16.6211 18.5913L18.5519 16.3377C18.7283 16.1333 18.8179 15.8679 18.8014 15.5984C18.7849 15.3288 18.6637 15.0763 18.4636 14.8949Z" fill="white"/>
</svg>
