<svg width="16" height="16" viewBox="0 0 16 16" fill="none" xmlns="http://www.w3.org/2000/svg">
<path d="M15.2541 2.52816L13.1862 0.462136C13.0403 0.315619 12.867 0.199367 12.676 0.120059C12.4851 0.0407514 12.2804 -4.95526e-05 12.0736 4.51641e-08C11.6523 4.51641e-08 11.2561 0.165049 10.9591 0.462136L8.73385 2.68738C8.58733 2.83325 8.47109 3.00664 8.39178 3.19758C8.31247 3.38852 8.27167 3.59325 8.27172 3.8C8.27172 4.22136 8.43677 4.61748 8.73385 4.91456L10.361 6.54175C9.98013 7.38128 9.45058 8.14503 8.79793 8.79612C8.14691 9.45037 7.38324 9.98185 6.54359 10.365L4.91643 8.73786C4.77056 8.59135 4.59717 8.4751 4.40624 8.39579C4.2153 8.31648 4.01058 8.27568 3.80383 8.27573C3.38247 8.27573 2.98636 8.44078 2.68928 8.73786L0.46213 10.9612C0.315435 11.1073 0.199085 11.281 0.119775 11.4723C0.0404646 11.6636 -0.000240616 11.8687 1.06996e-06 12.0757C1.06996e-06 12.4971 0.165047 12.8932 0.46213 13.1903L2.52618 15.2544C2.99996 15.7301 3.65431 16 4.32615 16C4.4679 16 4.60382 15.9883 4.73779 15.965C7.35523 15.534 9.95131 14.1417 12.0464 12.0485C14.1396 9.95728 15.5299 7.36311 15.9668 4.73786C16.0988 3.93592 15.8328 3.11068 15.2541 2.52816Z" fill="white"/>
</svg>
